PathFileType	4	(X/Y/Z)	C:/Users/opensim2020/Desktop/walking_exp_matlab/subject02_walking11_straight_04.trc	
DataRate	CameraRate	NumFrames	NumMarkers	Units	OrigDataRate	OrigDataStartFrame	OrigNumFrames	
100.00	100.00	8	42	mm	100.00	3340	227	
Frame#	Time	LFHD			RFHD			LBHD			RBHD			C7			T10			CLAV			STRN			RBAK			LSHO			LUPA			LELB			LFRM			LWRA			LWRB			LFIN			RSHO			RUPA			RELB			RFRM			RWRA			RWRB			RFIN			LASI			RASI			LPSI			RPSI			LTHI			LKNE			LTIB			LANK			LHEE			LTOE			RTHI			RKNE			RTIB			RANK			RHEE			RTOE			*39			*40			*41			
		X1	Y1	Z1	X2	Y2	Z2	X3	Y3	Z3	X4	Y4	Z4	X5	Y5	Z5	X6	Y6	Z6	X7	Y7	Z7	X8	Y8	Z8	X9	Y9	Z9	X10	Y10	Z10	X11	Y11	Z11	X12	Y12	Z12	X13	Y13	Z13	X14	Y14	Z14	X15	Y15	Z15	X16	Y16	Z16	X17	Y17	Z17	X18	Y18	Z18	X19	Y19	Z19	X20	Y20	Z20	X21	Y21	Z21	X22	Y22	Z22	X23	Y23	Z23	X24	Y24	Z24	X25	Y25	Z25	X26	Y26	Z26	X27	Y27	Z27	X28	Y28	Z28	X29	Y29	Z29	X30	Y30	Z30	X31	Y31	Z31	X32	Y32	Z32	X33	Y33	Z33	X34	Y34	Z34	X35	Y35	Z35	X36	Y36	Z36	X37	Y37	Z37	X38	Y38	Z38	X39	Y39	Z39	X40	Y40	Z40	X41	Y41	Z41	X42	Y42	Z42	

114	1.130	-964.83112	-98.40762	1741.91260	-1106.33301	-84.59057	1716.98877	-939.80182	28.25941	1664.22217	-1080.66919	54.44074	1638.29639	-1001.25220	85.41133	1522.31665	-1002.23761	142.75967	1248.15161	-1002.75427	-53.12813	1452.30530	-1013.06561	-100.48372	1278.54749	-1055.71204	152.78464	1348.80310	-829.30310	-5.43588	1501.02869	-737.48877	-47.53703	1310.25891	-718.34784	-98.70316	1177.02844	-723.39825	-179.43120	1069.58984	-780.76599	-282.57074	997.18445	-739.61108	-253.19760	972.65106	-745.13770	-306.95767	935.41974	-1193.39844	27.46007	1483.01392	-1267.09424	87.99216	1297.38831	-1283.07690	93.98174	1151.17896	-1306.98669	80.25990	1031.97729	-1296.20789	42.05066	901.08417	-1319.94287	93.30493	902.60364	-1327.61194	63.77341	836.08392	-876.67700	-82.32662	979.68152	-1131.39844	-84.91855	973.08917	-958.91193	126.29037	1029.99072	-1074.04041	129.98535	1029.09045	-845.43506	20.29840	669.49078	-886.81940	81.58535	474.28525	-897.88281	164.48399	296.81134	-949.07739	189.52350	76.35796	-1001.99939	227.04443	52.40750	-937.04565	35.20792	33.54837	-1217.93860	-60.20982	675.47913	-1185.72754	-135.25705	480.74994	-1202.12341	-158.54999	296.73254	-1182.04858	-215.61528	108.96455	-1124.05664	-210.72949	47.23607	-1208.56555	-376.61597	100.99972	-1046.60486	14.01097	1800.47156	-3357.27075	2845.89819	1034.31799			 
115	1.140	-965.75940	-106.26920	1740.75549	-1107.08838	-92.49232	1715.99365	-940.83984	20.66419	1663.22803	-1081.19189	46.32627	1636.85632	-1002.48340	77.75204	1521.38464	-1003.81555	135.02641	1247.08875	-1003.64679	-60.89706	1451.27734	-1013.81500	-108.25748	1277.54578	-1057.11511	144.95740	1347.74719	-830.18188	-12.77691	1499.89270	-738.24048	-53.95393	1308.95129	-719.19910	-104.79221	1175.46936	-724.39215	-185.40346	1068.42432	-781.75659	-289.31351	996.41949	-740.94122	-260.16394	971.57990	-746.23767	-313.84702	934.54230	-1194.99304	19.37685	1482.18860	-1268.15393	79.57539	1296.34839	-1284.27075	85.56286	1150.11877	-1308.21350	71.95953	1030.93640	-1297.37488	33.96068	900.01782	-1321.23181	85.26579	901.63110	-1328.50134	55.88321	834.76849	-876.85571	-89.39037	978.52637	-1131.71606	-93.10349	971.80884	-960.34692	118.83032	1028.98120	-1075.52551	121.99483	1028.04333	-845.83649	15.01829	669.04919	-887.22473	77.69138	474.16608	-898.26538	162.37079	297.49905	-949.09076	189.18918	77.07202	-1002.21069	227.29402	53.49531	-936.91058	35.18369	33.49375	-1217.78638	-68.35217	674.08026	-1185.07239	-144.32443	479.80396	-1202.12341	-170.97058	296.58835	-1182.69592	-231.90199	109.81004	-1124.88074	-227.45013	47.93795	-1207.76428	-393.43610	104.52828	-1047.59949	6.00001	1799.53442	-3360.45459	2845.27002	1034.06909			 
116	1.150	-966.91089	-114.52554	1739.88562	-1108.04858	-100.50284	1714.91418	-941.90985	13.06441	1662.27344	-1082.83997	38.65294	1636.42041	-1003.67584	69.83613	1520.25842	-1005.43292	127.21896	1246.05774	-1004.53546	-68.75414	1450.25061	-1014.57794	-116.28043	1276.56470	-1058.52075	136.95514	1346.46716	-831.12158	-20.14806	1498.80969	-739.30316	-60.39861	1307.29309	-720.13287	-110.80744	1173.82751	-725.53577	-191.80612	1066.33667	-782.75806	-295.60815	995.15771	-742.18695	-266.18097	970.12061	-747.47455	-320.16177	932.99463	-1196.09521	11.10693	1480.89148	-1269.61609	71.17420	1295.26074	-1285.54626	77.00570	1149.02698	-1309.51819	63.49223	1029.85071	-1298.55847	25.71855	898.80365	-1322.62012	76.93307	900.58960	-1330.02295	47.67200	833.86505	-877.12073	-96.59709	977.43158	-1132.07068	-101.28192	970.44611	-961.89514	111.26451	1027.97131	-1077.01648	114.01084	1027.04016	-846.30798	9.65014	668.45868	-887.65033	73.68230	474.05783	-898.72980	160.12906	298.22272	-949.06976	188.88159	77.82687	-1002.50403	226.94475	54.56686	-936.79169	35.12882	33.44277	-1218.28088	-77.41879	672.82037	-1184.71301	-153.90848	478.98923	-1202.11829	-182.80203	296.37674	-1183.01001	-246.47551	110.46938	-1125.52917	-242.18680	48.41331	-1206.59473	-408.57245	106.77479	-1048.63684	-2.02587	1798.51758	-3357.39771	2845.83569	1034.29419			 
117	1.160	-967.92218	-122.13866	1738.41772	-1109.03406	-108.52097	1713.81689	-942.94965	5.13969	1661.25171	-1083.49377	30.45859	1635.06152	-1005.08539	61.84475	1519.18213	-1007.09186	119.24527	1244.97424	-1005.54987	-76.69523	1449.21631	-1015.41870	-124.28784	1275.49622	-1059.65540	128.81044	1345.46423	-832.13818	-27.57787	1497.64795	-740.30859	-66.59757	1305.96814	-721.22791	-116.60490	1172.05396	-726.57025	-197.72868	1064.40369	-783.75555	-301.33002	993.44281	-743.49847	-272.07187	968.22266	-748.59473	-325.68628	931.31750	-1197.01575	2.81416	1479.74683	-1270.48816	62.60041	1294.07629	-1286.96936	68.35547	1147.97400	-1310.78442	54.80266	1028.73694	-1299.89111	17.27369	897.72504	-1324.07947	68.33798	899.49750	-1331.39868	39.15395	832.74835	-877.67493	-103.89144	976.35693	-1132.60339	-109.56626	969.10931	-963.44519	103.64133	1026.98364	-1078.58826	105.94533	1026.01013	-846.82159	4.39038	667.94324	-888.10138	69.41283	473.88324	-899.13593	157.64563	298.93552	-949.12042	188.58276	78.57578	-1002.48346	226.50859	55.44699	-936.67633	35.08749	33.38500	-1218.79553	-87.02351	671.76019	-1184.70886	-163.85262	478.30887	-1202.18250	-194.17863	296.14688	-1182.89404	-259.25140	110.72463	-1125.42969	-255.17253	48.58695	-1205.65576	-421.61386	107.95471	-1049.81079	-9.98501	1797.45618	-3357.34546	2845.95508	1034.20190			 
118	1.170	-968.89087	-129.69949	1737.50818	-1110.16504	-116.55104	1712.75427	-944.45575	-2.66701	1660.41541	-1085.58325	23.04476	1634.32666	-1006.65350	53.99351	1518.22705	-1008.79596	111.19823	1243.90845	-1006.60931	-84.65633	1448.19495	-1016.30804	-132.33260	1274.49097	-1061.47424	120.67941	1344.10815	-833.26337	-35.05470	1496.50403	-741.46112	-72.82170	1304.41516	-722.47321	-122.16610	1170.19116	-727.95526	-203.11832	1062.58374	-784.76239	-306.89917	991.58759	-744.80981	-277.18665	965.93976	-749.52130	-331.26825	929.40961	-1198.34607	-5.55492	1478.65405	-1272.15881	54.08760	1292.97192	-1288.40308	59.51863	1146.82898	-1312.27441	45.98076	1027.66772	-1301.31165	8.42278	896.65277	-1325.64014	59.46024	898.43323	-1332.91418	30.25958	831.64551	-878.10437	-111.28872	975.20874	-1133.18884	-117.98599	967.80902	-965.05444	95.93990	1025.99097	-1080.12292	97.79819	1024.99792	-847.42584	-1.23989	667.39221	-888.54553	64.94634	473.64941	-899.42603	155.00087	299.60049	-949.06616	188.17290	79.37258	-1002.28497	226.67790	56.72918	-936.55206	35.01722	33.36046	-1219.59937	-97.20984	670.95526	-1184.94470	-174.19090	477.88715	-1202.27271	-204.97342	295.75317	-1182.39246	-270.28641	110.50309	-1124.79431	-266.23196	48.26147	-1204.80823	-432.68842	107.93030	-1051.26855	-18.03318	1796.69214	-3360.27734	2845.17554	1034.23730			 
119	1.180	-970.25623	-137.89104	1736.74365	-1111.37561	-124.57551	1711.71887	-945.75201	-10.29202	1659.25696	-1086.74426	14.81032	1633.27991	-1007.95728	46.06525	1517.06152	-1010.50354	103.04907	1242.74084	-1007.76172	-92.74816	1447.18213	-1017.19098	-140.56421	1273.51221	-1063.16089	112.46302	1343.12683	-834.47430	-42.58054	1495.41614	-742.72272	-79.25671	1302.74182	-723.87653	-127.57573	1168.27734	-729.29565	-207.84528	1060.33875	-785.81897	-311.89148	989.19879	-746.05334	-281.60504	963.47736	-750.89044	-335.54276	926.48987	-1199.71887	-13.98964	1477.57874	-1273.97937	45.36838	1292.08752	-1290.05066	50.61815	1145.74854	-1313.90076	36.90550	1026.58057	-1302.84082	-0.72933	895.49945	-1327.27441	50.35177	897.35211	-1334.29553	21.09221	830.46448	-878.63434	-118.81878	974.17340	-1133.88623	-126.51046	966.55109	-966.71362	88.15596	1024.98242	-1081.67285	89.56030	1023.93164	-848.10541	-6.97633	666.76825	-889.04303	60.28671	473.43747	-899.66742	152.25316	300.34152	-948.93756	187.77365	80.27968	-1002.52448	226.10033	57.93438	-936.43323	35.00727	33.32434	-1220.27563	-107.67817	670.41302	-1185.31934	-184.76901	477.59631	-1202.24939	-215.17053	295.18207	-1181.69849	-279.72940	109.90420	-1124.11804	-275.32996	47.91315	-1203.99841	-442.03403	106.61290	-1052.39343	-25.94997	1795.44385	-3357.29932	2845.99805	1034.36389			 
120	1.190	-971.31995	-145.38879	1735.51758	-1112.76599	-132.77197	1710.58899	-947.21515	-18.19187	1658.22583	-1088.36450	6.93843	1632.23877	-1009.56738	38.00694	1515.88940	-1012.25391	94.89629	1241.63123	-1009.02643	-100.90638	1446.17798	-1018.24591	-148.83958	1272.52332	-1065.48267	104.23072	1342.14270	-835.78156	-50.19536	1494.28015	-744.31519	-85.64087	1301.02454	-725.40259	-132.86047	1166.33972	-730.73193	-213.08337	1057.79138	-786.82416	-316.41315	986.27075	-747.41241	-285.66864	960.66022	-751.85730	-339.83432	923.58313	-1201.15710	-22.44982	1476.60376	-1275.27747	36.52839	1290.79517	-1291.64819	41.48471	1144.56213	-1315.54712	27.69121	1025.44543	-1304.57507	-10.13613	894.53882	-1328.92529	40.96327	896.21454	-1336.05432	11.56964	829.42560	-879.40662	-126.33821	973.04333	-1134.75891	-135.16029	965.35553	-968.41693	80.13876	1023.93274	-1083.26099	81.25787	1022.83716	-849.00146	-13.27901	665.74640	-889.58301	55.48774	473.14865	-900.33661	149.48073	301.08755	-948.86890	187.31732	81.27821	-1002.14783	225.87100	59.34930	-936.31470	34.93309	33.28226	-1221.42749	-118.61131	670.05212	-1185.77271	-195.47278	477.15768	-1202.25208	-224.67438	294.40286	-1180.78918	-287.76141	108.83350	-1123.16064	-282.85715	47.06617	-1203.29932	-449.77075	104.33081	-1053.80164	-33.89538	1794.36292	-3357.49463	2845.97388	1034.26440			 
121	1.200	-973.03302	-153.75032	1734.55322	-1114.07056	-140.74168	1709.66589	-948.79071	-26.18363	1657.45288	-1089.76416	-1.33733	1631.18042	-1011.24268	29.92508	1514.75256	-1014.04071	86.60421	1240.53210	-1010.31769	-109.16213	1445.15479	-1019.37006	-157.11285	1271.57031	-1066.72998	95.67811	1340.78906	-837.26001	-57.99165	1493.09363	-745.69873	-91.76447	1299.52039	-727.09430	-138.06375	1164.40149	-732.30212	-216.72493	1055.12292	-788.05566	-320.44327	983.05609	-748.73370	-289.62866	957.54303	-753.23242	-343.01636	920.02032	-1202.72058	-31.12113	1475.40271	-1276.82520	27.51446	1289.69800	-1293.65857	32.38949	1143.50610	-1317.23987	18.25896	1024.36316	-1306.26062	-19.69871	893.48322	-1330.75537	31.26100	895.12274	-1338.13867	1.80212	828.51874	-880.24689	-134.10678	971.90869	-1135.65820	-144.03415	964.24243	-970.08148	71.95927	1022.79303	-1084.88208	72.86827	1021.75183	-849.78064	-19.19571	665.25226	-890.20703	50.53056	472.95700	-900.67908	146.44502	301.93787	-948.78607	186.84010	82.38424	-1002.16748	225.62514	60.89544	-936.17950	34.87712	33.21809	-1222.61841	-129.79924	669.84888	-1186.31128	-205.90584	476.70563	-1202.17456	-233.52956	293.44339	-1179.93811	-294.54602	107.53773	-1121.89404	-289.16556	45.87426	-1202.65576	-456.25168	101.18446	-1055.35046	-41.90563	1793.41064	-3357.51465	2845.86353	1034.47168			 
